<svg fill="none" viewbox="0 0 148 37" xmlns="http://www.w3.org/2000/svg">
<path d="M68.6895 15.7707H66.1452V36.7134H68.6895V15.7707Z" fill="currentColor"></path>
<path d="M70.9078 36.7134V15.7707H76.1774C77.4722 15.7707 78.5134 16.0152 79.274 16.4951C80.0436 16.975 80.5959 17.654 80.9219 18.5233V18.5504C80.9309 18.5504 80.94 18.5595 80.94 18.5595C81.2478 19.3925 81.4018 20.3794 81.4018 21.475C81.4018 22.5705 81.2388 23.3673 80.9038 24.2275C80.5688 25.0876 80.0074 25.7848 79.2287 26.31C78.3505 26.8985 77.3002 27.2064 76.2046 27.2064H73.443V36.7043H70.8988L70.9078 36.7134ZM73.4521 25.0695H75.6432C76.4309 25.0695 77.0829 24.9609 77.5627 24.7345C78.0155 24.5263 78.3414 24.1822 78.5587 23.6661L78.5949 23.5846H78.5859C78.7941 23.0504 78.8937 22.3623 78.8937 21.4659C78.8937 20.5695 78.7941 19.6913 78.604 19.148C78.4229 18.641 78.1241 18.2969 77.6986 18.1158C77.2458 17.9076 76.5668 17.808 75.6794 17.808H73.4611V25.0786L73.4521 25.0695Z" fill="currentColor"></path>
<path d="M96.5316 36.65V26.7536H90.447V36.65H88.0205V15.8432H90.447V24.8703H96.5316V15.8432H98.9219V36.65H96.5316Z" fill="currentColor"></path>
<path d="M106.383 36.9126C104.961 36.9126 103.829 36.6319 103.014 36.0796C102.2 35.5182 101.62 34.7396 101.294 33.7526C100.968 32.7929 100.805 31.6701 100.805 30.4297V21.982C100.805 20.7144 100.977 19.6007 101.321 18.6681C101.683 17.7084 102.272 16.9569 103.087 16.4317C103.893 15.9066 105.006 15.6349 106.401 15.6349C107.795 15.6349 108.864 15.8975 109.687 16.4317C110.493 16.9478 111.082 17.6993 111.417 18.641V18.6681C111.743 19.6188 111.915 20.7325 111.915 21.973V30.4388C111.915 31.6883 111.752 32.8019 111.426 33.7436C111.1 34.7124 110.52 35.4911 109.715 36.0524C108.918 36.6138 107.795 36.9035 106.383 36.9035V36.9126ZM106.365 17.6722C105.495 17.6722 104.834 17.8351 104.382 18.152C103.911 18.487 103.648 18.8673 103.485 19.4377C103.268 20.1893 103.159 20.9045 103.159 21.6198V30.8371C103.159 31.5434 103.268 32.2587 103.485 33.0283C103.657 33.6078 103.938 34.0243 104.4 34.3593C104.834 34.6943 105.495 34.8573 106.374 34.8573C107.252 34.8573 107.886 34.6943 108.311 34.3683L108.347 34.3412V34.314C108.809 33.9609 109.081 33.5625 109.235 33.0102C109.443 32.2496 109.552 31.5072 109.552 30.81V21.5927C109.552 20.8683 109.452 20.1621 109.235 19.4287C109.09 18.8945 108.8 18.4961 108.311 18.143C107.859 17.8261 107.216 17.6722 106.365 17.6722Z" fill="currentColor"></path>
<path d="M119.629 36.8854C118.18 36.8854 117.04 36.6229 116.243 36.1068C115.419 35.5907 114.848 34.8573 114.55 33.9247C114.251 33.0192 114.097 31.987 114.097 30.8553V15.8341H116.442V30.9096C116.442 31.7154 116.524 32.3945 116.696 33.0011C116.868 33.6078 117.175 34.0695 117.628 34.3955C118.081 34.7305 118.778 34.9025 119.629 34.9025C120.48 34.9025 121.123 34.7305 121.567 34.3774C122.029 34.0243 122.345 33.5715 122.527 32.974C122.717 32.3492 122.816 31.6611 122.816 30.9096V15.8251H125.134V30.8462C125.134 31.987 124.971 33.0192 124.654 33.9247C124.337 34.8482 123.758 35.5816 122.952 36.0977C122.128 36.6229 121.042 36.8764 119.629 36.8764V36.8854Z" fill="currentColor"></path>
<path d="M132.369 36.9035C131.201 36.9035 130.214 36.6591 129.444 36.1792C128.629 35.6812 128.022 35.0021 127.642 34.1691C127.271 33.3452 126.99 31.9961 126.936 30.8281L129.145 30.7375C129.218 31.3895 129.335 32.1953 129.553 32.8744C129.734 33.4538 130.078 33.9518 130.567 34.3502C131.001 34.7124 131.617 34.8935 132.396 34.8935C133.174 34.8935 133.926 34.6762 134.397 34.2506C134.859 33.8251 135.085 33.1279 135.085 32.1772C135.085 31.2265 134.868 30.5927 134.442 29.9679C134.007 29.3341 133.392 28.6551 132.622 27.9488L128.955 24.5082C128.303 23.8834 127.805 23.2134 127.47 22.5072C127.153 21.819 126.99 21.0585 126.99 20.2345C126.99 18.7677 127.443 17.6178 128.339 16.821C129.236 16.0333 130.431 15.6349 131.898 15.6349C133.365 15.6349 133.346 15.7345 133.953 15.9156C134.578 16.1148 135.121 16.4317 135.556 16.8663C136.072 17.3734 136.434 17.9166 136.651 18.5142C136.878 19.148 137.059 20.1802 137.122 21.2214L134.976 21.3301C134.922 20.642 134.84 19.8814 134.632 19.2838C134.451 18.7677 134.143 18.3784 133.663 18.0343C133.256 17.7446 132.667 17.5907 131.907 17.5907C131.146 17.5907 130.449 17.7899 129.942 18.1882C129.444 18.5776 129.2 19.1933 129.2 20.0444C129.2 20.8955 129.308 21.0494 129.507 21.4569C129.707 21.8824 130.078 22.3442 130.603 22.8422L134.27 26.2375C135.094 26.9981 135.818 27.8583 136.434 28.7909C137.05 29.7416 137.367 30.8281 137.367 32.0233C137.367 33.2184 137.158 33.9971 136.733 34.7033C136.307 35.4277 135.71 35.98 134.958 36.3422C134.225 36.7043 133.355 36.8854 132.378 36.8854L132.369 36.9035Z" fill="currentColor"></path>
<path d="M139.141 36.65V15.8432H147.1V17.7808H141.568V24.9699H145.561V26.8261H141.568V34.7667H147.145V36.65H139.141Z" fill="currentColor"></path>
<path d="M30.6704 0.912598L30.6885 36.8583H55.0899V15.7526L30.6704 0.912598Z" fill="currentColor"></path>
<path d="M20.2308 6.6802V36.8583H26.4149V9.85827L20.2308 6.6802Z" fill="currentColor"></path>
<path d="M10.434 12.1671V36.8583H16.3193V15.0373L10.434 12.1671Z" fill="currentColor"></path>
<path d="M0.854492 17.5273V36.8583H6.73075V20.0897L0.854492 17.5273Z" fill="currentColor"></path>
</svg>